<svg id="Capa_1" enable-background="new 0 0 512 512" height="512" viewBox="0 0 512 512" width="512" xmlns="http://www.w3.org/2000/svg"><g><g><g><path d="m389.758 196.71c-1.948 0-3.895-.742-5.381-2.228-2.973-2.972-2.974-7.792-.002-10.765l22.279-22.287c2.972-2.972 7.792-2.973 10.764-.002 2.973 2.972 2.974 7.792.002 10.765l-22.279 22.287c-1.486 1.487-3.435 2.23-5.383 2.23z" fill="#365e7d"/></g></g><path d="m240.238 92.035h31.524v63.048h-31.524z" fill="#365e7d"/><circle cx="256" cy="322.843" fill="#f9d264" r="189.155"/><path d="m173.45 457.045c28.538 28.345 66.058 47.648 107.921 53.26-8.301 1.116-16.765 1.695-25.371 1.695-104.471 0-189.151-84.691-189.151-189.162 0-104.461 84.681-189.151 189.151-189.151 8.606 0 17.07.579 25.372 1.695-41.782 5.592-79.241 24.834-107.759 53.098-34.597 34.272-56.021 81.819-56.021 134.359 0 52.468 21.363 99.944 55.858 134.206z" fill="#efc356"/><path d="m413.43 330.47c-1.8 37.77-16.9 72.05-40.72 98.27-1.7 1.88-7.58-.7-9.38 1.09-1.79 1.8.5 7.96-1.38 9.67-26.23 23.82-60.52 38.92-98.3 40.71-2.52.13-5.1-6.04-7.65-6.04s-5.05 6.17-7.57 6.04c-27.41-1.3-52.99-9.6-74.98-23.17-8.32-5.12-16.14-11.01-23.34-17.55-1.82-1.65-.37-7.75-2.11-9.49-1.85-1.85-6.89.66-8.65-1.28-23.82-26.23-38.92-60.54-40.7-98.34-.13-2.51 5.85-5 5.85-7.54 0-2.56-5.98-5.14-5.85-7.68 1.8-37.78 16.92-72.09 40.75-98.32 1.63-1.79 7.06.21 8.77-1.51 1.87-1.88.03-7.46 1.99-9.25 7.23-6.56 15.08-12.46 23.44-17.59l.01-.01c21.98-13.51 47.52-21.78 74.9-23.07 2.49-.12 5.01 6.26 7.53 6.26 2.58 0 5.14-6.38 7.69-6.25 37.78 1.81 72.06 16.92 98.28 40.75 1.88 1.71.36 7.7 2.16 9.5 1.79 1.79 6.9-.6 8.6 1.28 23.8 26.24 38.88 60.53 40.66 98.29.13 2.51-5.93 5.07-5.93 7.61 0 2.57 6.06 5.08 5.93 7.62z" fill="#eaf6ff"/><path d="m418.232 173.012-12.391-12.391c-2.734-2.734-2.734-7.166 0-9.9l6.359-6.359c6.065-6.065 15.899-6.065 21.964 0l.327.327c6.065 6.065 6.065 15.899 0 21.964l-6.359 6.359c-2.734 2.734-7.166 2.734-9.9 0z" fill="#f9d264"/><path d="m154.5 435.1c5.75 7.79 12.09 15.13 18.95 21.94-8.32-5.12-16.14-11.01-23.34-17.55-1.82-1.65-.37-7.75-2.11-9.49-1.85-1.85-6.89.66-8.65-1.28-23.82-26.23-38.92-60.54-40.7-98.34v-.08c0-2.48 5.85-4.95 5.85-7.46 0-2.53-5.85-5.08-5.85-7.6v-.08c1.8-37.78 16.92-72.09 40.75-98.32 1.63-1.79 7.06.21 8.77-1.51 1.87-1.88.03-7.46 1.99-9.25 7.23-6.56 15.08-12.46 23.44-17.59-6.89 6.83-13.26 14.18-19.03 22-3.07 4.14-5.97 8.42-8.7 12.82-16.66 26.88-26.78 58.24-28.13 91.85-.1 2.55-.15 5.11-.15 7.68 0 2.52.05 5.04.15 7.54 1.32 33.62 11.42 65 28.07 91.88 2.72 4.41 5.62 8.69 8.69 12.84z" fill="#d8ecfe"/><g><g><path d="m287.524 78.272h-63.049c-21.579 0-39.135-17.556-39.135-39.136s17.556-39.136 39.136-39.136h63.049c21.579 0 39.135 17.556 39.135 39.136s-17.556 39.136-39.136 39.136zm-63.048-63.049c-13.185 0-23.912 10.727-23.912 23.913s10.727 23.913 23.912 23.913h63.049c13.185 0 23.912-10.727 23.912-23.913s-10.727-23.913-23.912-23.913h-63.049z" fill="#365e7d"/></g></g><path d="m287.52 70.66v24.52c0 3.87-3.13 7-7 7h-49.04c-3.87 0-7-3.13-7-7v-24.52c0-17.41 14.11-31.52 31.52-31.52 5.52 0 10.71 1.42 15.22 3.91 2.6 1.44 4.98 3.24 7.07 5.32 5.7 5.71 9.23 13.59 9.23 22.29z" fill="#f9d264"/><path d="m271.22 43.05c-9.72 5.37-16.3 15.72-16.3 27.61v31.52h-23.44c-3.87 0-7-3.13-7-7v-24.52c0-17.41 14.11-31.52 31.52-31.52 5.52 0 10.71 1.42 15.22 3.91z" fill="#efc356"/><g><g><path d="m256.12 309.822c-4.204 0-7.612-3.407-7.612-7.612v-70.93c0-4.204 3.408-7.612 7.612-7.612s7.612 3.407 7.612 7.612v70.93c0 4.204-3.408 7.612-7.612 7.612z" fill="#f25a74"/></g></g><g><g><path d="m263.73 165.42v31.34c0 4.2-3.41 7.61-7.61 7.61s-7.61-3.41-7.61-7.61v-31.35c2.49-.12 5.01-.18 7.53-.18 2.58 0 5.14.06 7.69.19z" fill="#365e7d"/></g><g><path d="m263.65 448.95v31.26c-2.52.13-5.06.19-7.61.19s-5.09-.06-7.61-.19v-31.26c0-4.2 3.4-7.61 7.61-7.61 4.2 0 7.61 3.41 7.61 7.61z" fill="#365e7d"/></g></g><g><path d="m172.35 239.03c-1.48 1.49-3.43 2.23-5.38 2.23s-3.89-.74-5.38-2.23l-22.19-22.19c3.42-3.75 7.01-7.34 10.76-10.76l22.19 22.19c2.98 2.97 2.98 7.79 0 10.76z" fill="#365e7d"/></g><g><path d="m372.71 428.74c-3.41 3.76-7.01 7.35-10.76 10.76l-22.09-22.08c-2.97-2.98-2.97-7.8 0-10.77s7.79-2.97 10.76 0z" fill="#365e7d"/></g><g><path d="m137.63 322.77c0 4.21-3.41 7.61-7.61 7.61h-31.37c-.13-2.51-.19-5.03-.19-7.57 0-2.56.06-5.11.19-7.65h31.37c4.2 0 7.61 3.41 7.61 7.61z" fill="#365e7d"/></g><g><path d="m413.62 322.81c0 2.57-.06 5.12-.19 7.66h-31.22c-4.2 0-7.61-3.41-7.61-7.61 0-4.21 3.41-7.62 7.61-7.62h31.22c.13 2.51.19 5.03.19 7.57z" fill="#365e7d"/></g><g><path d="m172.3 417.3-22.19 22.19c-3.75-3.41-7.35-7.01-10.76-10.77l22.18-22.18c2.97-2.97 7.79-2.97 10.77 0 2.97 2.97 2.97 7.79 0 10.76z" fill="#365e7d"/></g><g><path d="m154.57 210.49c-3.07 4.14-5.97 8.42-8.7 12.82l-6.47-6.47c3.42-3.75 7.01-7.34 10.76-10.76z" fill="#2b4d66"/></g><g><path d="m117.59 322.84c0 2.52.05 5.04.15 7.54h-19.09v-.08c-.13-2.48-.19-4.98-.19-7.49 0-2.53.06-5.06.19-7.57v-.08h19.09c-.1 2.55-.15 5.11-.15 7.68z" fill="#2b4d66"/></g><g><path d="m154.5 435.1-4.39 4.39c-3.75-3.41-7.35-7.01-10.76-10.77l6.46-6.46c2.72 4.41 5.62 8.69 8.69 12.84z" fill="#2b4d66"/></g><g><path d="m372.77 216.95-22.09 22.09c-1.48 1.48-3.43 2.22-5.38 2.22s-3.9-.74-5.38-2.22c-2.98-2.98-2.98-7.8 0-10.77l22.09-22.1c3.75 3.42 7.35 7.02 10.76 10.78z" fill="#365e7d"/></g><circle cx="256.121" cy="322.853" fill="#365e7d" r="23.643"/></g></svg>